<svg width="27" height="33" viewBox="0 0 27 33" fill="none" xmlns="http://www.w3.org/2000/svg">
<path d="M2 17.5653H14.8476M14.8476 25.348H2M6.24356 6.5955H8.42375H10.6039M11.3437 9.78267V3.11181C11.3437 2.81694 11.2206 2.53415 11.0016 2.32564C10.7826 2.11714 10.4855 2 10.1757 2H6.67185C6.36209 2 6.06501 2.11714 5.84598 2.32564C5.62694 2.53415 5.50389 2.81694 5.50389 3.11181V9.78267C4.42572 10.4649 3.54158 11.3904 2.93023 12.4767C2.31888 13.563 1.99931 14.7764 2 16.0088V28.6834C2 29.2732 2.24611 29.8388 2.68418 30.2558C3.12225 30.6728 3.7164 30.9071 4.33593 30.9071H12.5117C13.1312 30.9071 13.7253 30.6728 14.1634 30.2558C14.6015 29.8388 14.8476 29.2732 14.8476 28.6834V16.0088C14.8483 14.7764 14.5287 13.563 13.9174 12.4767C13.306 11.3904 12.4219 10.4649 11.3437 9.78267Z" stroke="white" stroke-opacity="0.75" stroke-width="2.40892" stroke-linecap="round" stroke-linejoin="round"/>
<path d="M18.8624 23.4951H26M26 27.8188H18.8624M21.22 17.4007H22.4312H23.6424M24.0534 19.1714V15.4653C24.0534 15.3015 23.985 15.1444 23.8633 15.0286C23.7416 14.9127 23.5766 14.8477 23.4045 14.8477H21.4579C21.2858 14.8477 21.1208 14.9127 20.9991 15.0286C20.8774 15.1444 20.809 15.3015 20.809 15.4653V19.1714C20.2101 19.5504 19.7189 20.0645 19.3792 20.668C19.0396 21.2716 18.862 21.9457 18.8624 22.6303V29.6718C18.8624 29.9994 18.9992 30.3136 19.2425 30.5453C19.4859 30.777 19.816 30.9071 20.1602 30.9071H24.7022C25.0464 30.9071 25.3765 30.777 25.6199 30.5453C25.8632 30.3136 26 29.9994 26 29.6718V22.6303C26.0004 21.9457 25.8228 21.2716 25.4832 20.668C25.1435 20.0645 24.6524 19.5504 24.0534 19.1714Z" stroke="white" stroke-opacity="0.75" stroke-width="1.92714" stroke-linecap="round" stroke-linejoin="round"/>
</svg>
